<svg id="Layer_1" data-name="Layer 1" xmlns="http://www.w3.org/2000/svg" viewBox="0 0 1873.56 1246.46"><defs><style>.cls-1{fill:#fff;}</style></defs><title>Addidas Logo</title><path class="cls-1" d="M0,1071.9c4.91-63.23,33.75-112,89.89-141.73s112.8-25.77,168.24,6.42c0-5,.12-9.68-.05-14.33-.1-2.59.73-3.48,3.38-3.47q35.25.13,70.5,0c3.07,0,3.39,1.34,3.38,3.86q-.09,45.18,0,90.37V1236.2c-1.51.1-2.82.25-4.13.25-23,0-46-.06-69,.09-3.39,0-4.34-1-4.12-4.24.27-4,.07-8,.07-12.49-55.2,32.1-111.65,36.36-168.15,6.42-56.33-29.85-84.89-78.61-90-141.8Zm257.6,6.45c0-6.23.91-12.62-.18-18.65-3.19-17.79-11.86-32.85-24.59-45.7-17.75-17.92-39.38-26.72-64.34-27.41a84.94,84.94,0,0,0-32.9,6,90.72,90.72,0,0,0-48,41.78C78,1051.55,74.71,1070.1,77,1089.65c2.29,19.21,10.26,35.85,23.12,50.08A91.12,91.12,0,0,0,181.88,1169a89.17,89.17,0,0,0,42-18.34c14.84-11.61,25-26.44,31.28-44.16C258.41,1097.27,258.33,1087.84,257.6,1078.35Z"/><path class="cls-1" d="M1611.43,810.83h-5q-181.47,0-363,.06c-3,0-4.65-.83-6.2-3.46-10.77-18.26-21.73-36.41-32.65-54.58q-15.92-26.46-31.86-52.88c-8.15-13.58-16.21-27.21-24.36-40.79q-15.89-26.48-31.84-52.9c-8.15-13.57-16.23-27.2-24.37-40.78q-15.77-26.31-31.59-52.6-12.4-20.68-24.78-41.4-10-16.68-20-33.34-12.49-20.85-25-41.72-15.6-26-31.23-51.94-14.43-24.06-28.82-48.13-15.6-26-31.24-52-16.57-27.57-33.16-55.15-6.36-10.58-12.8-21.11c-2.83-4.63-2.91-4.67,1.88-7.55q37.2-22.35,74.41-44.64c20.19-12.15,40.3-24.42,60.49-36.56,23.72-14.25,47.51-28.37,71.23-42.63Q1091.06,19,1120.42,1.09c2.81-1.71,4.22-1.57,6.07,1.6C1137,20.54,1147.75,38.21,1158.41,56q21.48,35.76,42.93,71.52c14.53,24.15,29.15,48.24,43.66,72.4,13,21.58,25.81,43.25,38.78,64.83,12,19.88,24,39.69,36,59.56q32.22,53.52,64.37,107.09,20.53,34.13,41.09,68.25,22.45,37.35,44.84,74.74c10.57,17.66,21,35.41,31.57,53,11.94,19.89,24.06,39.66,36,59.55,14.3,23.85,28.46,47.79,42.73,71.66,9.41,15.73,18.92,31.4,28.37,47.11C1609.55,807.07,1610.23,808.53,1611.43,810.83Z"/><path class="cls-1" d="M1109.3,810.21a31.32,31.32,0,0,1-4.38.59q-181.67,0-363.31.09a5.94,5.94,0,0,1-5.9-3.39c-7.94-13.41-16.1-26.68-24.13-40s-16-26.94-24.1-40.39c-6.92-11.53-13.93-23-20.86-34.54-8.21-13.67-16.35-27.39-24.55-41.07q-15.6-26-31.23-52-15.9-26.44-31.83-52.88-22.49-37.33-45-74.7c-3.4-5.66-6.84-11.3-10.23-17a24.35,24.35,0,0,1-1.24-2.88L795.8,287.58c2.18,3.49,4.31,6.81,6.33,10.2Q835,352.64,867.92,407.51c13.16,21.91,26.5,43.7,39.67,65.61q27.36,45.52,54.59,91.13c13,21.67,26.17,43.27,39.18,65q25.36,42.28,50.62,84.66c11.79,19.68,23.66,39.31,35.45,59,7,11.77,14,23.59,21,35.4a12.25,12.25,0,0,1,.78,2.07Z"/><path class="cls-1" d="M700,1236.29H622.84v-16.47c-50.9,30-103.2,34.87-157.11,12-31.72-13.43-56.68-35.36-75.05-64.61-41.3-65.78-31.08-146.45,16.42-200.2C434.16,936.44,468.44,918,509,912.22s78.31,2.58,113.75,24.59v-5.09c0-39,.06-78-.09-117,0-3.9,1.07-4.78,4.81-4.75,22.75.17,45.49.09,68.24.09H700Zm-77.68-157.8c0-6.48,1-13.17-.19-19.41-4.28-21.44-15.41-39-32.64-52.46-18.84-14.71-40.18-21.55-64.19-19.57q-36.81,3-61.26,30.63c-18,20.35-25.55,44.21-22.46,71.16,3,26.26,15.58,47.34,36.69,63.06,20.6,15.35,43.9,21,69.26,16.89a87.86,87.86,0,0,0,44.39-20.92,94.92,94.92,0,0,0,28.57-43C623.36,1096.11,622.41,1087.31,622.33,1078.49Z"/><path class="cls-1" d="M1109.19,810.33c6.62-.08,13.24-.22,19.85-.23,17.87,0,35.75.07,53.62-.08,3.45,0,4.46,1,4.46,4.46q-.12,208.83-.06,417.67c0,2.34.26,4.39-3.3,4.37-24-.12-48-.06-72-.08a20.12,20.12,0,0,1-2.33-.32v-16.59c-38.35,23.74-79,31.61-122.53,23.18-36.42-7.07-67.43-24.65-92-52.29-54.58-61.44-53.64-143.23-18.14-200.06,24.64-39.46,59.82-65,105-75.46,45-10.46,87.62-2.82,127.36,21.79.12-1.46.26-2.3.26-3.13q0-60.73,0-121.48c0-.62-.07-1.25-.1-1.87Zm.72,268.3-.71,0c0-6.12,1-12.44-.17-18.31-5.81-28.48-22.07-49.54-47.56-63.2-21-11.25-43.38-13.45-66.32-7.15-24.22,6.65-42.62,21.25-55.27,42.86a87.35,87.35,0,0,0-11.15,59.09c3.88,24.75,16.14,44.83,36.21,59.85,20.23,15.14,43.09,20.89,68.08,17.26,20-2.91,37.08-12,51.3-26.37,11.93-12,20.44-26.15,23.86-42.83C1109.59,1092.92,1109.38,1085.7,1109.91,1078.63Z"/><path class="cls-1" d="M1470.85,936.9V919.13c1.43-.11,2.62-.28,3.82-.28,23.12,0,46.24.06,69.36-.08,3.52,0,4.43,1.1,4.43,4.51q-.12,154.48,0,309c0,2.42.08,4.29-3.4,4.28-23.87-.13-47.74-.07-71.61-.08-.72,0-1.44-.17-2.63-.31v-16.67q-64.86,40.07-137,19.77c-33.21-9.41-61-28-82.89-54.94-48.73-60-48.72-139.92-10.67-197.56,25.11-38,60.11-62.51,104.68-72.26S1431.3,912.57,1470.85,936.9Zm-.46,141.31c0-5.83.95-12.11-.17-18-4.18-22.07-15.61-40-33.23-53.82-18.6-14.62-39.77-21.15-63.47-19.34-18.7,1.42-35.48,7.78-49.93,19.71-25.51,21.06-37.14,48.13-33.93,81.19,2.32,24,13.08,43.6,31.11,59.41,17.13,15,37.17,22.42,59.83,22.68a85.92,85.92,0,0,0,37.31-8,92.69,92.69,0,0,0,44.68-43C1469.09,1106.34,1472.47,1092.89,1470.39,1078.21Z"/><path class="cls-1" d="M1863.79,1012.16h-3.7c-24.75,0-49.5-.07-74.25.09-3.25,0-4-1.26-4.9-4-2.07-6.64-3.9-13.55-7.28-19.52-5.32-9.39-14.77-13.56-24.94-15.68a111,111,0,0,0-51.85,1.13c-13.43,3.57-21.7,13.92-21.59,27,0,6.14,3.67,10.13,8.18,13.52,8.24,6.18,17.78,9.71,27.57,12.2,21.27,5.4,42.73,10,64,15.46,18.48,4.73,37.11,9.2,54,18.51,22.75,12.52,39.42,30,43.2,56.68,4.1,28.88-1.12,55.93-19.75,79.3-10.57,13.26-24.39,22.31-39.73,29.14-18.63,8.29-38.18,12.77-58.52,14.35a268,268,0,0,1-76.21-4.55c-19.26-4-37.63-10.64-54.13-21.82-22.86-15.49-36.53-36.71-40.57-64-.77-5.17-.93-10.42-1.43-15.63-.25-2.51.59-3.54,3.32-3.53q39.74.13,79.49,0c2.4,0,3.64.52,3.73,3.3.66,20,12.13,32.75,30.09,38.41,19,6,38.58,6.33,58.11,3.06,9.87-1.65,18.71-5.85,25.8-13.4,11.12-11.86,8.69-26.59-5.58-34.6-13.59-7.63-28.5-10.93-43.41-14.55-25.31-6.14-50.69-12.13-75.71-19.32-17.41-5-33-14-45.44-27.69A71,71,0,0,1,1594,1025.4c-2.3-19.86.1-39.06,8.67-57.29a95.76,95.76,0,0,1,28.11-35.33C1648.38,919,1668.71,912,1690.53,909c24.74-3.4,49.47-2.75,74.19.85,15.28,2.23,30.13,5.79,44.19,12.18,21.22,9.63,37.67,24.33,47.07,46a102.9,102.9,0,0,1,8.24,41.92A14,14,0,0,1,1863.79,1012.16Z"/><path class="cls-1" d="M194.27,740.72c3.32-2.09,6.43-4.12,9.61-6q24.21-14.54,48.45-29,42.18-25.26,84.36-50.55,31.9-19.15,63.76-38.38,32-19.28,64.07-38.58c2.25-1.36,3.52-1.41,5.05,1.17,9.5,16.11,19.2,32.1,28.83,48.14q19.5,32.52,39,65c8.21,13.67,16.54,27.26,24.75,40.93Q576.31,757,590.34,780.6q8,13.32,15.95,26.63c.54.92,1,1.86,1.87,3.37-2,.1-3.28.22-4.59.22q-181.85,0-363.69.07a6,6,0,0,1-5.93-3.37c-12.33-20.81-24.83-41.51-37.26-62.26C195.87,743.89,195.18,742.44,194.27,740.72Z"/><path class="cls-1" d="M821.88,1236.28c-1.41.07-2.52.18-3.62.18-25.36,0-50.73-.06-76.09.08-3.39,0-4.12-1-4.11-4.24q.12-158.74,0-317.49c0-3.3.85-4.22,4.17-4.21,25.24.14,50.48.08,75.72.09,1.22,0,2.44.1,3.93.17Z"/><path class="cls-1" d="M822,812.19v73.62c-1.38.07-2.58.17-3.79.17-25.34,0-50.69,0-76,.06-3,0-4.08-.73-4.06-3.93.13-22.1.09-44.2,0-66.3,0-2.43.16-3.92,3.31-3.91,26.1.11,52.2.06,78.29.08C820.3,812,820.9,812.09,822,812.19Z"/><path class="cls-1" d="M1809.87,872.27c-28.4-.76-48.82-21.35-48.8-49.15,0-29.19,20.92-49.41,49.25-49.32s49,20,49.1,49.32C1859.49,851.82,1837.64,872,1809.87,872.27Zm.32-89.55c-21.87-.75-40.43,18.24-40.53,40.33a40.34,40.34,0,0,0,40.24,40.28c22.65,0,40.74-17.56,40.81-40C1850.78,800.44,1832.16,782,1810.19,782.72Z"/><path class="cls-1" d="M1817.57,826.67l15.83,22.79c-8.12,2.41-10.71,1.37-14.3-4.8-2-3.54-4.36-6.93-6.4-10.48-2.89-5-7.83-5.76-12.85-6.1-.66,0-2,1.63-2,2.54-.2,5.36-.31,10.74,0,16.1.22,4.34-2.57,3.58-5.16,3.74-2.78.17-4.29-.26-4.25-3.73.19-15.35.16-30.7,0-46.05,0-3,.91-3.9,3.84-3.76,7.83.38,15.69.4,23.52.77,7.52.36,12.86,5,14,11.72s-2.64,13.2-9.42,16.06C1819.14,826,1818,826.47,1817.57,826.67Zm-19.66-6.25c5.81-.33,11.16-.31,16.41-1.06,3.52-.5,5.58-3.33,5.65-6.93.06-3.08-1.49-5.95-4.6-6.45-5.67-.9-11.46-1.1-17.46-1.61Z"/></svg>